<?xml version="1.0" standalone="no"?>
<!DOCTYPE svg PUBLIC "-//W3C//DTD SVG 20010904//EN"
 "http://www.w3.org/TR/2001/REC-SVG-20010904/DTD/svg10.dtd">
<svg version="1.0" xmlns="http://www.w3.org/2000/svg"
 width="738.000000pt" height="374.000000pt" viewBox="0 0 738.000000 374.000000"
 preserveAspectRatio="xMidYMid meet">

<g transform="translate(0.000000,374.000000) scale(0.100000,-0.100000)"
fill="#000000" stroke="none">
<path d="M3382 3595 c-88 -19 -248 -98 -377 -186 -61 -41 -114 -76 -118 -77
-4 -2 -7 21 -6 52 1 31 -3 62 -10 70 -16 19 -59 26 -70 12 -5 -6 -15 -61 -21
-121 -7 -61 -13 -110 -14 -110 -6 -3 -119 -96 -150 -124 l-38 -36 15 31 c30
59 40 119 27 159 -17 51 -77 89 -138 88 -121 -2 -414 -156 -687 -361 -44 -33
-81 -59 -83 -57 -2 1 4 20 12 41 24 63 45 155 52 231 12 130 -45 240 -150 289
-63 29 -192 33 -277 8 -204 -61 -480 -268 -666 -499 -83 -103 -157 -248 -142
-277 6 -12 17 -17 26 -14 8 3 19 6 23 6 5 0 25 31 45 69 79 150 284 374 435
476 194 130 323 185 435 185 150 0 208 -92 171 -270 -23 -107 -61 -223 -104
-311 -34 -69 -47 -85 -147 -170 -275 -233 -726 -709 -947 -1000 -87 -114 -239
-341 -271 -406 -26 -50 -26 -52 -11 -97 9 -25 27 -55 41 -66 66 -52 156 -3
385 211 326 303 773 906 970 1308 l51 103 133 99 c324 241 639 418 742 419 18
0 22 -5 22 -31 0 -32 -35 -112 -70 -158 -184 -240 -166 -223 -180 -173 -14 53
-51 98 -73 89 -20 -8 -22 -57 -6 -157 l12 -68 -86 -104 c-47 -56 -123 -143
-169 -193 -116 -126 -344 -387 -406 -466 -40 -51 -52 -75 -52 -101 0 -37 24
-68 52 -68 14 0 212 228 429 494 79 98 260 298 264 294 3 -3 19 -91 59 -318
81 -462 124 -655 162 -731 30 -60 47 -74 73 -59 25 13 26 27 6 94 -26 91 -79
352 -119 586 -28 166 -64 362 -81 440 l-16 75 98 95 c145 139 313 283 313 268
0 -7 -10 -65 -21 -128 -18 -94 -20 -124 -12 -165 9 -41 8 -53 -5 -67 -14 -16
-14 -20 1 -36 26 -28 82 -27 135 4 126 73 337 240 521 412 94 88 123 110 118
91 -8 -30 -23 -172 -32 -294 l-7 -91 -31 4 c-22 2 -58 -10 -117 -38 -77 -38
-86 -40 -95 -25 -25 42 -48 65 -65 65 -28 0 -30 -10 -14 -69 7 -30 13 -55 11
-56 -93 -56 -224 -138 -275 -172 -111 -75 -272 -205 -272 -220 0 -19 54 -73
73 -73 8 0 55 33 104 73 159 130 378 285 389 275 3 -3 10 -66 15 -139 5 -74
12 -140 14 -146 7 -21 53 -15 69 9 20 29 21 143 1 253 -8 43 -13 80 -12 81 14
11 158 84 175 89 21 6 22 4 22 -52 0 -63 11 -83 46 -83 27 0 32 7 44 62 5 29
6 7 3 -67 -5 -94 -3 -112 10 -124 14 -11 21 -9 45 15 30 31 40 70 78 319 9 61
22 146 30 190 55 322 55 299 1 339 -22 16 -29 17 -42 6 -8 -7 -15 -21 -15 -32
0 -11 -9 -57 -20 -102 -10 -44 -30 -162 -44 -261 -35 -250 -35 -250 -30 -160
11 201 24 383 29 413 5 25 1 37 -19 57 l-24 24 35 69 c62 122 55 203 -21 246
-56 33 -90 37 -164 21z m145 -93 c20 -13 -19 -104 -75 -175 -106 -133 -297
-296 -576 -491 -49 -35 -67 -43 -62 -30 9 30 43 242 51 317 l7 68 56 42 c251
187 530 313 599 269z m-2151 -1009 c-82 -144 -116 -197 -210 -328 -207 -290
-353 -470 -531 -654 -141 -146 -325 -295 -325 -263 0 14 112 192 188 300 170
239 464 575 722 824 102 98 186 178 187 178 1 0 -13 -26 -31 -57z"/>
<path d="M6285 3568 c-3 -7 -22 -62 -44 -123 -21 -60 -45 -111 -52 -113 -74
-22 -220 -87 -236 -105 -26 -28 -15 -77 23 -102 24 -15 27 -15 44 0 15 14 113
55 131 55 6 0 -23 -102 -137 -478 -81 -267 -59 -234 -245 -367 -46 -33 -132
-108 -192 -167 l-108 -106 6 46 c7 52 41 240 57 315 9 45 11 47 44 47 19 0 53
9 75 20 113 58 346 275 383 357 18 40 18 44 2 68 -9 14 -31 35 -49 46 -28 18
-43 20 -119 15 l-88 -5 0 42 c0 57 -19 92 -49 92 -21 0 -26 -7 -37 -60 -20
-99 -38 -134 -69 -135 -7 0 -10 39 -8 114 3 95 1 115 -13 127 -14 11 -18 10
-31 -6 -8 -11 -20 -33 -25 -48 -8 -22 -13 -25 -24 -16 -10 8 -27 7 -66 -5 -29
-8 -53 -14 -55 -13 -1 2 1 34 5 72 10 96 3 140 -23 140 -25 0 -37 -26 -76
-156 l-31 -106 -77 -36 c-115 -54 -201 -113 -201 -137 0 -24 42 -70 65 -70 8
0 49 18 90 40 l74 41 -14 -48 c-9 -26 -22 -70 -30 -98 -13 -43 -24 -57 -79
-98 -155 -114 -233 -194 -281 -287 -46 -89 43 -230 146 -230 62 0 112 52 174
185 29 61 67 153 84 205 30 92 33 96 84 130 64 42 157 99 157 96 0 -1 -20
-103 -45 -227 -42 -207 -81 -511 -69 -530 3 -5 11 -9 18 -9 9 0 3 -21 -20 -63
-40 -76 -43 -105 -20 -175 19 -57 69 -102 114 -102 62 0 205 114 282 225 64
93 201 349 256 478 23 54 51 105 61 112 36 25 256 132 348 168 95 38 213 72
222 64 2 -3 -47 -73 -110 -157 -155 -206 -188 -290 -112 -290 33 0 132 114
306 353 69 96 77 99 146 68 155 -71 37 -284 -306 -550 -158 -123 -267 -198
-339 -236 -29 -15 -54 -31 -57 -35 -3 -5 9 -20 27 -35 46 -39 107 -32 185 21
250 168 480 376 583 528 62 91 77 195 39 272 -23 49 -78 101 -121 116 -15 5
-28 14 -28 18 0 8 27 46 133 183 51 67 62 112 36 149 -24 34 -46 36 -59 6 -4
-13 -46 -68 -92 -123 -46 -56 -99 -122 -118 -148 -32 -42 -39 -46 -77 -47
-107 0 -289 -59 -475 -152 -54 -26 -98 -46 -98 -43 0 2 11 39 26 82 14 43 41
139 59 213 19 74 52 191 73 260 l38 125 81 30 c85 31 183 96 183 121 0 8 -7
17 -16 21 -14 5 -122 -9 -180 -23 -21 -5 -21 -4 -8 58 8 35 14 75 14 89 0 41
-53 79 -65 47z m-773 -631 l-17 -87 -85 -49 c-47 -27 -87 -47 -89 -45 -2 2 6
40 19 84 l23 80 58 31 c31 17 67 42 80 55 12 13 24 23 25 21 1 -1 -5 -42 -14
-90z m318 -169 c-97 -93 -256 -215 -267 -204 -2 1 0 17 3 34 6 29 7 30 28 16
20 -13 24 -12 43 8 25 27 64 106 83 165 11 36 19 45 54 57 62 23 108 34 141
35 28 0 23 -7 -85 -111z m-766 -390 c-34 -95 -41 -107 -77 -145 -21 -22 -40
-33 -59 -33 -65 0 -17 100 96 199 33 28 61 51 62 51 2 0 -8 -33 -22 -72z m734
-210 c-129 -246 -272 -436 -341 -454 -35 -8 -42 -2 -39 42 5 75 100 222 222
345 72 72 186 167 203 168 5 1 -16 -45 -45 -101z"/>
<path d="M4862 3347 c-5 -7 -9 -19 -9 -27 0 -8 -14 -69 -31 -135 -30 -117 -61
-272 -105 -525 l-22 -125 -50 -3 c-56 -3 -294 -57 -430 -97 -49 -15 -115 -33
-145 -41 -164 -42 -215 -61 -218 -83 -2 -13 8 -32 27 -51 37 -38 76 -39 174
-6 120 40 378 117 472 141 28 7 74 22 103 33 l52 20 0 -109 c0 -125 17 -244
36 -260 18 -15 51 -2 65 24 7 11 11 51 11 87 -3 137 53 534 122 875 14 66 28
147 31 180 6 55 5 62 -17 81 -31 28 -54 35 -66 21z"/>
<path d="M4219 3283 c-1 -5 0 -47 1 -95 l2 -87 -44 -21 c-88 -41 -302 -129
-306 -126 -10 10 54 125 83 151 32 28 34 32 22 55 -23 46 -49 37 -111 -37
-106 -127 -132 -215 -78 -265 53 -52 93 -47 237 24 44 22 102 54 128 70 26 17
49 29 51 27 2 -2 1 -20 -1 -40 -4 -32 -11 -39 -66 -69 -152 -83 -289 -169
-379 -237 -122 -94 -123 -95 -106 -130 19 -40 42 -40 104 1 29 20 56 36 58 36
2 0 66 40 143 89 140 89 195 121 210 121 5 0 7 -18 5 -40 -7 -65 16 -203 35
-217 23 -17 30 -16 53 7 16 16 20 33 20 95 0 111 19 225 39 232 9 4 77 32 151
63 74 31 158 65 186 74 29 9 60 26 69 37 18 18 17 20 -5 44 -28 30 -40 31
-115 5 -71 -24 -67 -25 -60 3 9 34 -11 75 -47 97 -39 24 -80 25 -136 6 -45
-16 -52 -10 -52 39 0 40 -86 123 -91 88z m206 -216 c-8 -13 -35 -38 -60 -56
l-45 -32 0 35 c0 31 5 38 38 55 20 11 47 20 60 21 21 0 22 -1 7 -23z"/>
<path d="M3385 2274 c-55 -20 -209 -73 -342 -119 -133 -46 -246 -86 -252 -90
-32 -19 16 -70 75 -81 37 -7 102 13 377 112 196 71 234 91 261 136 21 37 17
67 -10 74 -5 2 -54 -13 -109 -32z"/>
<path d="M6997 2123 c-16 -15 -5 -44 36 -93 23 -29 50 -64 59 -79 42 -63 6
-181 -96 -307 -204 -256 -867 -622 -1556 -859 -393 -135 -862 -248 -1435 -345
-698 -118 -884 -140 -1230 -147 -585 -12 -1074 66 -1250 199 -57 43 -69 73
-62 148 9 79 46 151 116 220 55 55 242 202 341 270 89 60 96 67 84 80 -8 8
-29 4 -77 -13 -191 -70 -463 -289 -532 -431 -24 -50 -27 -65 -22 -121 13 -165
137 -287 366 -362 226 -73 822 -126 1179 -104 408 26 1257 154 1707 257 163
38 470 116 550 141 645 197 1148 423 1560 701 137 92 205 149 298 247 85 91
110 129 136 210 49 152 35 221 -68 326 -62 64 -87 79 -104 62z"/>
</g>
</svg>
